<svg width="2668" height="279" xmlns="http://www.w3.org/2000/svg" xmlns:xlink="http://www.w3.org/1999/xlink" overflow="hidden"><defs><clipPath id="clip0"><rect x="184" y="959" width="2668" height="279"/></clipPath></defs><g clip-path="url(#clip0)" transform="translate(-184 -959)"><path d="M39 0C28.2415 0 19.0515 2.82548 11.4311 8.47568 3.81073 14.1259 0 20.967 0 28.9999L77.9999 28.9999C88.7584 28.9999 97.9483 26.1744 105.569 20.5242 113.189 14.874 117 8.03286 117 0L39 0Z" fill="#152430" fill-rule="evenodd" transform="matrix(1 0 0 -1 2465 988)"/><path d="M117.633 33.8444C122.282 33.8444 126.219 35.4577 129.445 38.6842 132.727 41.9653 134.368 45.93 134.368 50.5785 134.368 55.227 132.727 59.1918 129.445 62.4732 126.164 65.7543 122.227 67.395 117.633 67.395L33.6329 67.395 33.6329 33.8444 117.633 33.8444ZM117.633 100.946C122.227 100.946 126.164 102.586 129.445 105.868 132.727 109.149 134.368 113.113 134.368 117.762 134.368 122.411 132.727 126.376 129.445 129.657 126.164 132.938 122.227 134.578 117.633 134.578L33.6329 134.578 33.6329 100.946 117.633 100.946ZM0 0.211541 0 168.211 134.368 168.211C143.61 168.211 151.539 164.903 158.157 158.285 164.719 151.723 168 143.821 168 134.578 168 125.282 164.719 117.352 158.157 110.789 151.594 104.227 143.664 100.946 134.368 100.946 143.664 100.946 151.594 97.6645 158.157 91.102 164.719 84.5396 168 76.6371 168 67.395L168 33.7621C168 24.52 164.719 16.6179 158.157 10.0554 151.594 3.49296 143.664 0.211541 134.368 0.211541L0 0.211541Z" fill="#152430" fill-rule="evenodd" transform="matrix(1 0 0 -1 184 1205)"/><path d="M100.135 33.8445C109.376 33.8445 117.259 37.1255 123.782 43.688 130.306 50.2505 133.568 58.153 133.568 67.3951L133.568 100.946C133.568 110.243 130.306 118.173 123.782 124.735 117.259 131.298 109.376 134.579 100.135 134.579L66.7837 134.579C57.5965 134.579 49.7411 131.298 43.2177 124.735 36.6943 118.173 33.4327 110.243 33.4327 100.946L33.4327 67.3951C33.4327 58.153 36.6943 50.2505 43.2177 43.688 49.7411 37.1255 57.5965 33.8445 66.7837 33.8445L100.135 33.8445ZM33.4327 0.211542C24.1911 0.211542 16.3087 3.49296 9.78531 10.0554 3.26189 16.6179 0 24.5475 0 33.8445L0 134.579C0 143.875 3.26189 151.805 9.78531 158.368 16.3087 164.931 24.1911 168.212 33.4327 168.212L133.568 168.212C142.809 168.212 150.692 164.931 157.215 158.368 163.739 151.805 167 143.875 167 134.579L167 33.8445C167 24.5475 163.739 16.6179 157.215 10.0554 150.692 3.49296 142.809 0.211542 133.568 0.211542L33.4327 0.211542Z" fill="#152430" fill-rule="evenodd" transform="matrix(1 0 0 -1 415 1203)"/><path d="M33.6329 0.211541C24.3359 0.211541 16.4064 3.49296 9.8439 10.0554 3.28142 16.6179 0 24.5474 0 33.8444L0 168.211 134.368 168.211C143.664 168.211 151.594 164.93 158.157 158.368 164.719 151.805 168 143.875 168 134.578L33.6329 134.578 33.6329 67.395C33.6329 58.1529 36.914 50.2504 43.4765 43.6879 50.039 37.1255 57.9414 33.8444 67.1836 33.8444L168 33.8444C168 24.5474 164.719 16.6179 158.157 10.0554 151.594 3.49296 143.664 0.211541 134.368 0.211541L33.6329 0.211541Z" fill="#152430" fill-rule="evenodd" transform="matrix(1 0 0 -1 650 1207)"/><path d="M100.734 33.8445C110.031 33.8445 117.961 37.1255 124.523 43.688 131.086 50.2505 134.367 58.153 134.367 67.3951L134.367 100.946C134.367 110.243 131.086 118.173 124.523 124.735 117.961 131.298 110.031 134.579 100.734 134.579L67.1834 134.579C57.9413 134.579 50.0389 131.298 43.4764 124.735 36.9139 118.173 33.6329 110.243 33.6329 100.946L33.6329 67.3951C33.6329 58.153 36.9139 50.2505 43.4764 43.688 50.0389 37.1255 57.9413 33.8445 67.1834 33.8445L100.734 33.8445ZM33.6329 0.211542C24.3359 0.211542 16.4063 3.49296 9.84388 10.0554 3.28141 16.6179 0 24.5475 0 33.8445L0 134.579C0 143.875 3.28141 151.805 9.84388 158.368 16.4063 164.931 24.3359 168.212 33.6329 168.212L134.367 168.212C143.663 168.212 151.594 164.931 158.156 158.368 164.719 151.805 168 143.875 168 134.579L168 33.8445C168 24.5475 164.719 16.6179 158.156 10.0554 151.594 3.49296 143.663 0.211542 134.367 0.211542L33.6329 0.211542Z" fill="#152430" fill-rule="evenodd" transform="matrix(1 0 0 -1 1092 1212)"/><path d="M0 0.211542 0 134.579C0 143.875 3.28141 151.805 9.84388 158.368 16.4063 164.931 24.3359 168.212 33.6329 168.212L33.6329 100.946 100.734 100.946C110.031 100.946 117.961 104.227 124.523 110.79 131.086 117.352 134.367 125.282 134.367 134.579 134.367 143.875 137.648 151.805 144.211 158.368 150.773 164.931 158.703 168.212 168 168.212L168 134.579C168 125.282 164.719 117.352 158.156 110.79 151.594 104.227 143.663 100.946 134.367 100.946 143.663 100.946 151.594 97.6647 158.156 91.1022 164.719 84.5397 168 76.6372 168 67.3951L168 33.8445C168 24.5475 164.719 16.6179 158.156 10.0554 151.594 3.49296 143.663 0.211542 134.367 0.211542 125.071 0.211542 117.14 3.49296 110.578 10.0554 104.015 16.6179 100.734 24.5475 100.734 33.8445L117.633 33.8445C122.282 33.8445 126.219 35.4578 129.445 38.6843 132.727 41.9654 134.367 45.9301 134.367 50.5787 134.367 55.2271 132.727 59.1919 129.445 62.4733 126.164 65.7544 122.226 67.3951 117.633 67.3951L33.6329 67.3951 33.6329 33.8445C33.6329 24.5475 30.3515 16.6179 23.789 10.0554 17.2265 3.49296 9.29698 0.211542 0 0.211542Z" fill="#152430" fill-rule="evenodd" transform="matrix(1 0 0 -1 1325 1213)"/><path d="M117.633 100.345C122.226 100.345 126.164 101.976 129.445 105.238 132.727 108.5 134.367 112.468 134.367 117.143 134.367 121.709 132.727 125.624 129.445 128.885 126.164 132.147 122.226 133.778 117.633 133.778L50.367 133.778C45.7189 133.778 41.7537 132.147 38.4727 128.885 35.2461 125.678 33.6329 121.764 33.6329 117.143 33.6329 112.413 35.2461 108.445 38.4727 105.238 41.7537 101.976 45.7189 100.345 50.367 100.345L117.633 100.345ZM0 0.210282 0 167.21 134.367 167.21C143.664 167.21 151.594 163.949 158.156 157.425 164.719 150.902 168 143.019 168 133.778L168 100.345C168 91.1581 164.719 83.3027 158.156 76.7793 151.594 70.2558 143.664 66.9939 134.367 66.9939L67.1834 66.9939C57.9413 66.9939 50.0389 70.2558 43.4764 76.7793 36.9139 83.3027 33.6329 91.1581 33.6329 100.345L33.6329 33.643C33.6329 24.4014 30.3515 16.519 23.789 9.99559 17.2265 3.47217 9.29698 0.210282 0 0.210282Z" fill="#152430" fill-rule="evenodd" transform="matrix(1 0 0 -1 1983 1207)"/><path d="M134.368 100.948C134.368 110.245 131.086 118.174 124.524 124.736 117.961 131.299 110.031 134.58 100.735 134.58L67.1836 134.58C57.9414 134.58 50.039 131.299 43.4765 124.736 36.914 118.174 33.6329 110.245 33.6329 100.948L134.368 100.948ZM0 0.21731 0 134.58C0 143.876 3.28142 151.806 9.8439 158.368 16.4064 164.93 24.3359 168.211 33.6329 168.211L134.368 168.211C143.555 168.211 151.485 164.93 158.157 158.368 164.719 151.806 168 143.876 168 134.58L168 33.849C168 24.5524 164.719 16.6231 158.157 10.0609 151.43 3.33437 143.5 0.0534249 134.368 0.21731 134.586 8.52958 134.586 30.9233 134.368 67.3988L33.6329 67.3988 33.6329 33.849C33.6329 24.5524 30.3515 16.6231 23.789 10.0609 17.2266 3.49861 9.297 0.21731 0 0.21731Z" fill="#152430" fill-rule="evenodd" transform="matrix(1 0 0 -1 2211 1207)"/><path d="M117.633 33.8444C122.282 33.8444 126.219 35.4577 129.445 38.6842 132.727 41.9653 134.368 45.93 134.368 50.5785 134.368 55.227 132.727 59.1918 129.445 62.4732 126.164 65.7543 122.227 67.395 117.633 67.395L33.6329 67.395 33.6329 33.8444 117.633 33.8444ZM117.633 100.946C122.227 100.946 126.164 102.586 129.445 105.868 132.727 109.149 134.368 113.113 134.368 117.762 134.368 122.411 132.727 126.376 129.445 129.657 126.164 132.938 122.227 134.578 117.633 134.578L33.6329 134.578 33.6329 100.946 117.633 100.946ZM0 0.211541 0 168.211 134.368 168.211C143.61 168.211 151.539 164.903 158.157 158.285 164.719 151.723 168 143.821 168 134.578 168 125.282 164.719 117.352 158.157 110.789 151.594 104.227 143.664 100.946 134.368 100.946 143.664 100.946 151.594 97.6645 158.157 91.102 164.719 84.5396 168 76.6371 168 67.395L168 33.7621C168 24.52 164.719 16.6179 158.157 10.0554 151.594 3.49296 143.664 0.211541 134.368 0.211541L0 0.211541Z" fill="#152430" fill-rule="evenodd" transform="matrix(1 0 0 -1 2684 1207)"/><path d="M35.2343 0.211761C25.4948 0.211761 17.1877 3.64909 10.3127 10.5241 3.43768 17.3991 0 25.7066 0 35.4462L0 140.978C0 150.717 3.43768 159.024 10.3127 165.899 17.1877 172.774 25.4948 176.212 35.2343 176.212L35.2343 70.5946C35.2343 60.9124 38.672 52.6339 45.547 45.7589 52.422 38.8839 60.7006 35.4462 70.383 35.4462L105.531 35.4462C115.271 35.4462 123.578 38.8839 130.453 45.7589 137.328 52.6339 140.766 60.9124 140.766 70.5946L140.766 105.743C140.766 115.483 137.328 123.79 130.453 130.665 123.578 137.54 115.271 140.978 105.531 140.978 105.531 150.717 108.969 159.024 115.844 165.899 122.719 172.774 131.026 176.212 140.766 176.212 150.505 176.212 158.813 172.774 165.688 165.899 172.563 159.024 176 150.717 176 140.978L176 35.4462C176 25.7066 172.563 17.3991 165.688 10.5241 158.813 3.64909 150.505 0.211761 140.766 0.211761L35.2343 0.211761Z" fill="#152430" fill-rule="evenodd" transform="matrix(1 0 0 -1 2444 1208)"/><path d="M1798.26 1071.21C1789.01 1071.21 1781.1 1074.26 1774.53 1080.35 1767.96 1086.44 1764.67 1093.8 1764.67 1102.42L1765.06 1102.42 1764.38 1162.16 1764.67 1162.16 1764.67 1164.7 1764.03 1167.85C1764.03 1170.14 1764.04 1172.43 1764.05 1174.72L1764.05 1174.87 1803.61 1174.87 1803.61 1174.87 1856.62 1174.87 1856.62 1175 1865.14 1175 1865.14 1174.85 1865.14 1153.83 1865.66 1153.83 1866.45 1131.5C1866.56 1126.25 1866.51 1120.79 1866.14 1114.8L1864.78 1102.42 1855.66 1080.35C1849.1 1074.26 1841.16 1071.21 1831.85 1071.21L1798.26 1071.21ZM1764.67 1040 1865.52 1040C1874.72 1040 1882.66 1043.04 1889.33 1049.13 1895.9 1055.22 1899.19 1062.58 1899.19 1071.21L1899.19 1164.7 1898.73 1166.95 1898.73 1175 1906.69 1175C1906.7 1178.42 1906.72 1181.85 1906.73 1185.27 1907.15 1202.85 1907.58 1220.42 1908 1238 1904.03 1238 1900.36 1237.35 1896.98 1236.06L1895.77 1235.3 1894 1234.99C1890.03 1233.46 1886.41 1231.18 1883.12 1228.13 1876.55 1222.04 1873.27 1214.71 1873.27 1206.13L1842.36 1206.13 1842.36 1205.48 1735.06 1206 1735.06 1237.14 1731.4 1236.49 1731.4 1237.87C1723.46 1237.87 1716.7 1235.28 1711.11 1230.1 1706.93 1226.22 1702.41 1221.87 1701.83 1216.75 1700.21 1208.03 1701.46 1184.74 1701.39 1177.76L1701.39 1174.87 1702.54 1174.87C1711.03 1174.26 1717.32 1172.05 1721.43 1168.24 1724.74 1165.17 1727.34 1162.07 1729.23 1158.94L1731 1154.16 1731 1071.21C1731 1062.58 1734.29 1055.22 1740.86 1049.13 1747.43 1043.04 1755.37 1040 1764.67 1040Z" fill="#152430" fill-rule="evenodd"/><path d="M0 168 134.47 168 135.581 167.789 154.431 167.789C162.312 167.789 169.044 164.664 174.626 158.416 180.208 152.169 183 144.604 183 135.722L167.87 135.722 100.811 134.367 100.811 33.6329C100.811 24.3359 97.5273 16.4064 90.9598 9.8439 84.3924 3.28142 76.4839 0 67.2347 0L67.2347 134.367 33.6585 134.367C24.3545 134.367 16.4189 137.649 9.85139 144.211 3.28392 150.774 0 158.703 0 168Z" fill="#152430" fill-rule="evenodd" transform="matrix(1 0 0 -1 862 1210)"/></g></svg>