<svg width="1246" height="1246" xmlns="http://www.w3.org/2000/svg" xmlns:xlink="http://www.w3.org/1999/xlink" overflow="hidden"><defs><clipPath id="clip0"><rect x="296" y="593" width="1246" height="1246"/></clipPath></defs><g clip-path="url(#clip0)" transform="translate(-296 -593)"><path d="M1268.55 992.734C1252.84 992.447 1237.03 998.149 1224.83 1009.91L953.044 1271.92 941.983 1268.49C934.059 1266.86 925.854 1266.01 917.451 1266.01 850.223 1266.01 795.724 1320.51 795.724 1387.74 795.724 1454.97 850.223 1509.46 917.451 1509.46 984.678 1509.46 1039.18 1454.97 1039.18 1387.74 1039.18 1379.33 1038.33 1371.13 1036.7 1363.21L1036.35 1362.08 1310.01 1098.27C1334.41 1074.75 1335.12 1035.9 1311.6 1011.5 1299.84 999.3 1284.25 993.022 1268.55 992.734ZM856.086 593 856.086 727.628C856.086 761.518 883.56 788.993 917.451 788.993 951.341 788.993 978.816 761.518 978.816 727.628L978.816 593 981.307 593.125C1296.24 625.109 1542 891.08 1542 1214.45 1542 1559.38 1262.38 1839 917.451 1839 594.08 1839 328.108 1593.24 296.125 1278.31L296 1275.82 419.729 1275.82C453.619 1275.82 481.094 1248.34 481.094 1214.45 481.094 1180.56 453.619 1153.09 419.729 1153.09L297.255 1153.09 299.236 1125.16C311.759 1037.68 342.413 956.043 387.269 884.186L437.646 817.638 529.988 909.979C553.952 933.943 592.806 933.943 616.771 909.979 640.735 886.014 640.735 847.16 616.771 823.196L524.399 730.824 537.789 718.508C627.122 650.018 735.495 605.12 853.594 593.125Z" fill="#0F1A23" fill-rule="evenodd"/></g></svg>