<svg width="217" height="162" xmlns="http://www.w3.org/2000/svg" xmlns:xlink="http://www.w3.org/1999/xlink" overflow="hidden"><defs><clipPath id="clip0"><rect x="1914" y="995" width="217" height="162"/></clipPath></defs><g clip-path="url(#clip0)" transform="translate(-1914 -995)"><path d="M2078.67 1104.39C2107.57 1104.39 2131 1127.91 2131 1156.94L2130.99 1157 2064.37 1157 2064.38 1156.9C2064.38 1145.43 2062.06 1134.5 2057.87 1124.56L2051.27 1112.35 2058.3 1108.52C2064.56 1105.86 2071.45 1104.39 2078.67 1104.39ZM1981.65 1088.99C2019 1088.99 2049.29 1119.4 2049.29 1156.92L2049.28 1157 1914.01 1157 1914 1156.92C1914 1119.4 1944.29 1088.99 1981.65 1088.99ZM2078.67 1031.68C2095.81 1031.68 2109.7 1045.63 2109.7 1062.84 2109.7 1080.05 2095.81 1094.01 2078.67 1094.01 2061.53 1094.01 2047.64 1080.05 2047.64 1062.84 2047.64 1045.63 2061.53 1031.68 2078.67 1031.68ZM1981.65 995C2003.8 995 2021.76 1013.04 2021.76 1035.28 2021.76 1057.53 2003.8 1075.57 1981.65 1075.57 1959.49 1075.57 1941.53 1057.53 1941.53 1035.28 1941.53 1013.04 1959.49 995 1981.65 995Z" fill="#152430" fill-rule="evenodd"/></g></svg>