<svg width="219" height="177" xmlns="http://www.w3.org/2000/svg" xmlns:xlink="http://www.w3.org/1999/xlink" overflow="hidden"><defs><clipPath id="clip0"><rect x="1903" y="1246" width="219" height="177"/></clipPath></defs><g clip-path="url(#clip0)" transform="translate(-1903 -1246)"><path d="M2012.84 1338.35C2003.35 1338.35 1995.67 1346.06 1995.67 1355.58 1995.67 1365.09 2003.35 1372.81 2012.84 1372.81 2022.32 1372.81 2030 1365.09 2030 1355.58 2030 1346.06 2022.32 1338.35 2012.84 1338.35ZM2012.84 1280.57C1981.89 1280.57 1955.33 1299.46 1943.99 1326.38L1942.62 1330.82 1946.38 1329.48C1965.35 1323.41 1988.22 1319.86 2012.84 1319.86 2037.45 1319.86 2060.32 1323.41 2079.29 1329.48L2083.06 1330.82 2081.68 1326.38C2070.34 1299.46 2043.79 1280.57 2012.84 1280.57ZM2012.84 1246C2073.13 1246 2122 1295.06 2122 1355.58 2122 1378.27 2115.13 1399.35 2103.36 1416.84L2098.29 1423 2044.41 1423 2065.67 1408.61C2072.43 1401.83 2077.9 1393.74 2081.68 1384.77L2085.86 1371.27 2081.94 1370.25C2080.19 1369.93 2078.39 1369.74 2076.54 1369.7 2069.17 1369.53 2061.09 1371.72 2052.34 1377.42 2046.37 1381.17 2041.17 1388.6 2037.13 1397.08L2028.9 1423 1996.77 1423 1988.54 1397.08C1984.5 1388.6 1979.3 1381.17 1973.34 1377.42 1964.49 1368.62 1949.32 1371.28 1943.73 1370.25L1939.81 1371.27 1943.99 1384.77C1947.77 1393.74 1953.24 1401.83 1960 1408.61L1981.26 1423 1941.83 1423 1929.71 1423 1903 1423 1903 1350.81 1903.97 1352.61 1905.89 1333.49C1916.07 1283.56 1960.08 1246 2012.84 1246Z" fill="#9FA3A7" fill-rule="evenodd"/></g></svg>