<svg width="3304" height="243" xmlns="http://www.w3.org/2000/svg" xmlns:xlink="http://www.w3.org/1999/xlink" overflow="hidden">
    <defs>
        <clipPath id="clip007"><rect x="90" y="2225" width="3304" height="243"/></clipPath>
    </defs>
    <g clip-path="url(#clip007)" transform="translate(-90 -2225)">
        <path d="M1264.01 2225 1737 2225.68 1738.74 2225.68 2211.73 2225C2382.91 2224.46 2507.66 2326.96 2746.86 2347.36 2806.66 2352.45 2874.06 2355 2946.21 2355.96L2957.07 2355.99 2957.07 2356.4 3392.07 2356.4 3392.06 2357.84 3394 2357.84 3394 2468 113.4 2468 90.54 2468 90.0001 2468 90.0001 2356.01 113.4 2356.01 113.4 2356.4 518.671 2356.4 518.671 2355.99 529.523 2355.96C601.678 2355 669.081 2352.45 728.881 2347.36 968.081 2326.96 1092.83 2224.46 1264.01 2225Z" 
        fill="#EC526C" fill-rule="evenodd"/>
    </g>
</svg>