<svg width="209" height="161" xmlns="http://www.w3.org/2000/svg" xmlns:xlink="http://www.w3.org/1999/xlink" overflow="hidden"><defs><clipPath id="clip0"><rect x="1777" y="1490" width="209" height="161"/></clipPath></defs><g clip-path="url(#clip0)" transform="translate(-1777 -1490)"><path d="M1858.57 1529.51 1837.98 1581.84 1854.69 1581.84 1841.66 1634.41 1889.4 1560.88 1871.81 1560.88 1886.23 1529.51ZM1827.89 1490 1890.62 1490 1899.45 1514.61 1925.29 1514.61C1934.25 1514.61 1941.51 1524.13 1941.51 1535.87L1941.51 1548.78 1954.9 1548.78 1954.9 1503.79 1955.1 1503.79C1972.17 1503.79 1986 1521.94 1986 1544.33L1986 1615.02C1986 1626.21 1982.54 1636.34 1976.95 1643.68L1968.67 1651 1955.75 1651 1955.75 1617.66 1922.46 1651 1808.68 1651 1777 1620.94 1777 1535.87C1777 1524.13 1784.26 1514.61 1793.21 1514.61L1819.06 1514.61Z" fill="#9FA3A7" fill-rule="evenodd"/></g></svg>